<mxfile host="Electron" agent="Mozilla/5.0 (Windows NT 10.0; Win64; x64) AppleWebKit/537.36 (KHTML, like Gecko) draw.io/28.1.2 Chrome/138.0.7204.243 Electron/37.4.0 Safari/537.36" version="28.1.2">
  <diagram name="Seite-1" id="23QcyHdmBhgYXpwfGeCB">
    <mxGraphModel dx="690" dy="593" grid="1" gridSize="10" guides="1" tooltips="1" connect="1" arrows="1" fold="1" page="1" pageScale="1" pageWidth="827" pageHeight="1169" math="0" shadow="0">
      <root>
        <mxCell id="0" />
        <mxCell id="1" parent="0" />
        <mxCell id="pnoU0uKwlUUj2FzZPCSj-1" value="start" style="ellipse;whiteSpace=wrap;html=1;" vertex="1" parent="1">
          <mxGeometry x="160" y="40" width="80" height="90" as="geometry" />
        </mxCell>
        <mxCell id="pnoU0uKwlUUj2FzZPCSj-3" value="input" style="shape=parallelogram;perimeter=parallelogramPerimeter;whiteSpace=wrap;html=1;fixedSize=1;" vertex="1" parent="1">
          <mxGeometry x="140" y="240" width="120" height="60" as="geometry" />
        </mxCell>
        <mxCell id="pnoU0uKwlUUj2FzZPCSj-4" value="print : Wie alt bist du" style="rounded=1;whiteSpace=wrap;html=1;" vertex="1" parent="1">
          <mxGeometry x="140" y="150" width="120" height="60" as="geometry" />
        </mxCell>
        <mxCell id="pnoU0uKwlUUj2FzZPCSj-6" value="over 50" style="rhombus;whiteSpace=wrap;html=1;" vertex="1" parent="1">
          <mxGeometry x="160" y="330" width="80" height="80" as="geometry" />
        </mxCell>
        <mxCell id="pnoU0uKwlUUj2FzZPCSj-7" value="" style="endArrow=classic;html=1;rounded=0;" edge="1" parent="1">
          <mxGeometry relative="1" as="geometry">
            <mxPoint x="199.5" y="390" as="sourcePoint" />
            <mxPoint x="199.5" y="440" as="targetPoint" />
          </mxGeometry>
        </mxCell>
        <mxCell id="pnoU0uKwlUUj2FzZPCSj-9" value="Yes&lt;div&gt;&lt;br&gt;&lt;/div&gt;" style="edgeLabel;html=1;align=center;verticalAlign=middle;resizable=0;points=[];" vertex="1" connectable="0" parent="pnoU0uKwlUUj2FzZPCSj-7">
          <mxGeometry x="-0.04" y="-3" relative="1" as="geometry">
            <mxPoint as="offset" />
          </mxGeometry>
        </mxCell>
        <mxCell id="pnoU0uKwlUUj2FzZPCSj-10" value="Du bist alt geworden" style="rounded=1;whiteSpace=wrap;html=1;" vertex="1" parent="1">
          <mxGeometry x="140" y="440" width="120" height="60" as="geometry" />
        </mxCell>
        <mxCell id="pnoU0uKwlUUj2FzZPCSj-11" value="" style="endArrow=classic;html=1;rounded=0;" edge="1" parent="1">
          <mxGeometry relative="1" as="geometry">
            <mxPoint x="230" y="370" as="sourcePoint" />
            <mxPoint x="330" y="370" as="targetPoint" />
          </mxGeometry>
        </mxCell>
        <mxCell id="pnoU0uKwlUUj2FzZPCSj-13" value="No" style="edgeLabel;html=1;align=center;verticalAlign=middle;resizable=0;points=[];" vertex="1" connectable="0" parent="pnoU0uKwlUUj2FzZPCSj-11">
          <mxGeometry y="1" relative="1" as="geometry">
            <mxPoint as="offset" />
          </mxGeometry>
        </mxCell>
        <mxCell id="pnoU0uKwlUUj2FzZPCSj-14" value="Eines Tages wirst du auch alt" style="rounded=1;whiteSpace=wrap;html=1;" vertex="1" parent="1">
          <mxGeometry x="330" y="340" width="120" height="60" as="geometry" />
        </mxCell>
        <mxCell id="pnoU0uKwlUUj2FzZPCSj-15" value="" style="endArrow=classic;html=1;rounded=0;" edge="1" parent="1">
          <mxGeometry width="50" height="50" relative="1" as="geometry">
            <mxPoint x="450" y="369.5" as="sourcePoint" />
            <mxPoint x="510" y="369.5" as="targetPoint" />
          </mxGeometry>
        </mxCell>
        <mxCell id="pnoU0uKwlUUj2FzZPCSj-16" value="" style="endArrow=classic;html=1;rounded=0;" edge="1" parent="1">
          <mxGeometry width="50" height="50" relative="1" as="geometry">
            <mxPoint x="510" y="380" as="sourcePoint" />
            <mxPoint x="510" y="560" as="targetPoint" />
          </mxGeometry>
        </mxCell>
        <mxCell id="pnoU0uKwlUUj2FzZPCSj-17" value="" style="endArrow=classic;html=1;rounded=0;" edge="1" parent="1">
          <mxGeometry width="50" height="50" relative="1" as="geometry">
            <mxPoint x="490" y="559.5" as="sourcePoint" />
            <mxPoint x="270" y="560" as="targetPoint" />
          </mxGeometry>
        </mxCell>
        <mxCell id="pnoU0uKwlUUj2FzZPCSj-19" value="" style="endArrow=classic;html=1;rounded=0;" edge="1" parent="1" source="pnoU0uKwlUUj2FzZPCSj-2">
          <mxGeometry width="50" height="50" relative="1" as="geometry">
            <mxPoint x="189.5" y="510" as="sourcePoint" />
            <mxPoint x="189.5" y="530" as="targetPoint" />
          </mxGeometry>
        </mxCell>
        <mxCell id="pnoU0uKwlUUj2FzZPCSj-22" value="" style="endArrow=classic;html=1;rounded=0;" edge="1" parent="1">
          <mxGeometry width="50" height="50" relative="1" as="geometry">
            <mxPoint x="199.5" y="120" as="sourcePoint" />
            <mxPoint x="199.5" y="150" as="targetPoint" />
          </mxGeometry>
        </mxCell>
        <mxCell id="pnoU0uKwlUUj2FzZPCSj-23" value="" style="endArrow=classic;html=1;rounded=0;" edge="1" parent="1">
          <mxGeometry width="50" height="50" relative="1" as="geometry">
            <mxPoint x="199.5" y="200" as="sourcePoint" />
            <mxPoint x="199.5" y="240" as="targetPoint" />
          </mxGeometry>
        </mxCell>
        <mxCell id="pnoU0uKwlUUj2FzZPCSj-24" value="" style="endArrow=classic;html=1;rounded=0;" edge="1" parent="1">
          <mxGeometry width="50" height="50" relative="1" as="geometry">
            <mxPoint x="199.5" y="290" as="sourcePoint" />
            <mxPoint x="199.5" y="330" as="targetPoint" />
          </mxGeometry>
        </mxCell>
        <mxCell id="pnoU0uKwlUUj2FzZPCSj-25" value="" style="endArrow=classic;html=1;rounded=0;exitX=0.5;exitY=1;exitDx=0;exitDy=0;" edge="1" parent="1" source="pnoU0uKwlUUj2FzZPCSj-10" target="pnoU0uKwlUUj2FzZPCSj-2">
          <mxGeometry width="50" height="50" relative="1" as="geometry">
            <mxPoint x="189.5" y="510" as="sourcePoint" />
            <mxPoint x="189.5" y="530" as="targetPoint" />
          </mxGeometry>
        </mxCell>
        <mxCell id="pnoU0uKwlUUj2FzZPCSj-2" value="ende" style="ellipse;whiteSpace=wrap;html=1;" vertex="1" parent="1">
          <mxGeometry x="160" y="530" width="80" height="80" as="geometry" />
        </mxCell>
      </root>
    </mxGraphModel>
  </diagram>
</mxfile>
